HIERARCHY
ROOT Hips
{
  OFFSET 50.3161 93.5765 16.7413
  CHANNELS 6 Xposition Yposition Zposition Zrotation Xrotation Yrotation
  JOINT spine
  {
    OFFSET 0 7.4756 0.429885
    CHANNELS 3 Zrotation Xrotation Yrotation
    JOINT spine1
    {
      OFFSET 0 9.92301 0
      CHANNELS 3 Zrotation Xrotation Yrotation
      JOINT spine2
      {
        OFFSET 0 9.50804 0
        CHANNELS 3 Zrotation Xrotation Yrotation
        JOINT Neck
        {
          OFFSET 0 24.4111 1.16384
          CHANNELS 3 Zrotation Xrotation Yrotation
          JOINT Head
          {
            OFFSET 0 7.37523 0
            CHANNELS 3 Zrotation Xrotation Yrotation
            End Site
            {
              OFFSET 0 17.8522 -5.88741
            }
          }
        }
        JOINT RightShoulder
        {
          OFFSET -4.00356 10.2679 -0.557468
          CHANNELS 3 Zrotation Xrotation Yrotation
          JOINT RightArm
          {
            OFFSET 0 13.4673 0
            CHANNELS 3 Zrotation Xrotation Yrotation
            JOINT RightArmRoll
            {
              OFFSET 0 6.79858 0
              CHANNELS 3 Zrotation Xrotation Yrotation
              JOINT RightForeArm
              {
                OFFSET 0 19.8018 0
                CHANNELS 3 Zrotation Xrotation Yrotation
                JOINT RightForeArmRoll
                {
                  OFFSET 0 7.62905 0
                  CHANNELS 3 Zrotation Xrotation Yrotation
                  JOINT RightHand
                  {
                    OFFSET 0 15.3098 0
                    CHANNELS 3 Zrotation Xrotation Yrotation
                    End Site
                    {
                      OFFSET 0 0 0
                    }
                  }
                }
              }
            }
          }
        }
        JOINT LeftShoulder
        {
          OFFSET 4.00356 10.2679 -0.557468
          CHANNELS 3 Zrotation Xrotation Yrotation
          JOINT LeftArm
          {
            OFFSET 0 13.4673 0
            CHANNELS 3 Zrotation Xrotation Yrotation
            JOINT LeftArmRoll
            {
              OFFSET 0 6.79858 0
              CHANNELS 3 Zrotation Xrotation Yrotation
              JOINT LeftForeArm
              {
                OFFSET 0 19.8018 0
                CHANNELS 3 Zrotation Xrotation Yrotation
                JOINT LeftForeArmRoll
                {
                  OFFSET 0 7.62905 0
                  CHANNELS 3 Zrotation Xrotation Yrotation
                  JOINT LeftHand
                  {
                    OFFSET 0 15.3098 0
                    CHANNELS 3 Zrotation Xrotation Yrotation
                    End Site
                    {
                      OFFSET 0 0 0
                    }
                  }
                }
              }
            }
          }
        }
      }
    }
  }
  JOINT RightUpLeg
  {
    OFFSET -6.62609 -1.21505 -1.01927
    CHANNELS 3 Zrotation Xrotation Yrotation
    JOINT RightUpLegRoll
    {
      OFFSET 0 17.9517 0
      CHANNELS 3 Zrotation Xrotation Yrotation
      JOINT RightLeg
      {
        OFFSET 0 -22.2304 0
        CHANNELS 3 Zrotation Xrotation Yrotation
        JOINT RightLegRoll
        {
          OFFSET 0 22.3032 0
          CHANNELS 3 Zrotation Xrotation Yrotation
          JOINT RightFoot
          {
            OFFSET 0 18.5636 0
            CHANNELS 3 Zrotation Xrotation Yrotation
            JOINT RightToeBase
            {
              OFFSET 0 15.5183 0
              CHANNELS 3 Zrotation Xrotation Yrotation
              End Site
              {
                OFFSET 0.00657761 7.51539 -0.866262
              }
            }
          }
        }
      }
    }
  }
  JOINT LeftUpLeg
  {
    OFFSET 6.62609 -1.21505 -1.01927
    CHANNELS 3 Zrotation Xrotation Yrotation
    JOINT LeftUpLegRoll
    {
      OFFSET 0 17.9518 0
      CHANNELS 3 Zrotation Xrotation Yrotation
      JOINT LeftLeg
      {
        OFFSET 0 22.2303 0
        CHANNELS 3 Zrotation Xrotation Yrotation
        JOINT LeftLegRoll
        {
          OFFSET 0 22.5093 0
          CHANNELS 3 Zrotation Xrotation Yrotation
          JOINT LeftFoot
          {
            OFFSET 0 18.3575 0
            CHANNELS 3 Zrotation Xrotation Yrotation
            JOINT LeftToeBase
            {
              OFFSET 0 15.5183 0
              CHANNELS 3 Zrotation Xrotation Yrotation
              End Site
              {
                OFFSET -0.029478 7.51538 -0.866263
              }
            }
          }
        }
      }
    }
  }
}
MOTION
Frames: 10
Frame Time: 0.00208333
51.6282 90.5283 26.9642 0.801002 -7.36053 -7.44796 0.184793 0.30303 -0.11614 0.372403 4.60842 -0.257531 0.376136 6.25348 -0.264117 -9.61433 -2.11606 0.36614 6.51183 8.85676 -0.818548 65.3377 -4.61213 -3.29678 115.963 7.9148 -25.2829 4.88721e-007 -2.04203e-006 -4.97007e-006 9.28644 67.8947 -7.67777 -2.66651e-006 3.28422e-006 -3 8.03006 -4.95138 0.69765 -64.4086 -9.30499 5.85131 -105.972 -8.87146 31.3544 -2.1979e-007 1.77028e-006 -6.52828e-008 42.2564 86.3916 -33.1713 2.15147e-006 -2.49587e-006 3.00068 -8.0301 -4.95138 -0.697632 -179.331 9.24499 -1.80853 -180 1.52522e-005 178.314 -175.24 40.9283 176.214 -2.92185e-006 -3.05856e-006 1.50001 -26.2104 74.9532 27.9325 8.53641 35.8273 -1.96419 -177.831 4.18416 -2.26078 4.54188e-006 -4.6773e-006 -1.34967 -5.21419 -35.2395 -0.923319 2.4583e-006 1.70791e-006 -1.07539 28.6999 75.8281 -29.8154 -8.92345 35.8094 3.87195 
51.6782 90.2153 26.9238 0.847565 -7.4065 -7.50056 0.181721 0.316806 -0.110902 0.366205 4.636 -0.246537 0.369798 6.28105 -0.253007 -9.65424 -2.12425 0.367597 6.49491 8.81588 -0.820704 65.1875 -4.6441 -3.30278 116.216 8.30936 -25.423 4.88721e-007 -2.04203e-006 -4.97007e-006 9.4701 67.7024 -7.77719 -2.66651e-006 3.28422e-006 -3 8.03006 -4.95138 0.69765 -64.4811 -9.30985 5.85533 -105.986 -8.53464 31.5172 -2.1979e-007 1.77028e-006 -6.52828e-008 45.1994 86.4718 -35.9995 2.15147e-006 -2.49587e-006 3.00067 -8.0301 -4.95138 -0.697632 -179.345 9.4614 -1.77617 -180 1.52521e-005 178.301 -175.132 41.5547 176.122 -2.92185e-006 -3.05856e-006 1.55789 -27.0284 75.4392 28.8142 8.53841 36.0919 -1.92634 -177.846 4.36918 -2.35174 4.54188e-006 -4.6773e-006 -1.34828 -5.35484 -35.9017 -1.01167 2.4583e-006 1.70791e-006 -1.11956 30.2281 76.4943 -31.3277 -8.9417 36.011 3.88754 
51.7299 89.9623 26.704 0.892153 -7.45125 -7.54731 0.177868 0.329382 -0.104484 0.358416 4.66117 -0.233107 0.361838 6.30623 -0.239431 -9.66849 -2.11194 0.36195 6.4611 8.76551 -0.827923 65.0603 -4.65998 -3.3019 116.426 8.70301 -25.5374 4.88721e-007 -2.04203e-006 -4.97007e-006 9.61463 67.5325 -7.85367 -2.66651e-006 3.28422e-006 -3 8.03006 -4.95138 0.69765 -64.5249 -9.30471 5.8532 -106.02 -8.18696 31.6724 -2.1979e-007 1.77028e-006 -6.52828e-008 47.9914 86.5354 -38.687 2.15147e-006 -2.49587e-006 3.00067 -8.0301 -4.95138 -0.697632 -179.357 9.6687 -1.74226 -180 1.5252e-005 178.29 -175.032 42.1684 176.034 -2.92185e-006 -3.05857e-006 1.61639 -27.969 75.9581 29.8221 8.53957 36.2043 -1.91233 -177.87 4.54955 -2.43956 4.54188e-006 -4.6773e-006 -1.34809 -5.49367 -36.5437 -1.10181 2.4583e-006 1.70791e-006 -1.16205 31.9036 77.1435 -32.9795 -8.94676 36.0573 3.89417 
51.7698 89.5961 26.7048 0.939111 -7.49236 -7.58823 0.172608 0.340592 -0.0966501 0.347777 4.68362 -0.21667 0.350984 6.32868 -0.222795 -9.65817 -2.08538 0.347825 6.4099 8.70889 -0.841592 64.9482 -4.66392 -3.29582 116.608 9.09897 -25.63 4.88721e-007 -2.04203e-006 -4.97007e-006 9.72084 67.3852 -7.90715 -2.66651e-006 3.28422e-006 -3 8.03006 -4.95138 0.69765 -64.5437 -9.29097 5.8458 -106.073 -7.8198 31.8244 -2.1979e-007 1.77028e-006 -6.52828e-008 50.5758 86.5837 -41.1773 2.15147e-006 -2.49587e-006 3.00067 -8.0301 -4.95138 -0.697632 -179.37 9.87834 -1.70404 -180 1.52519e-005 178.279 -174.94 42.7834 175.95 -2.92185e-006 -3.05857e-006 1.67803 -29.1063 76.5326 31.0332 8.5401 36.1827 -1.91859 -177.905 4.73287 -2.52396 4.54188e-006 -4.6773e-006 -1.34852 -5.63797 -37.1758 -1.19856 2.4583e-006 1.70791e-006 -1.20439 33.8496 77.8082 -34.8918 -8.93965 35.9599 3.89295 
51.7808 89.3531 26.5427 0.987613 -7.53028 -7.62403 0.166203 0.350612 -0.0876169 0.334817 4.70369 -0.197692 0.337775 6.34876 -0.203577 -9.62665 -2.04655 0.326453 6.34395 8.64704 -0.860753 64.8496 -4.65707 -3.28498 116.763 9.49671 -25.7042 4.88721e-007 -2.04203e-006 -4.97007e-006 9.7925 67.259 -7.94006 -2.66651e-006 3.28422e-006 -3 8.03006 -4.95138 0.69765 -64.5404 -9.26973 5.83381 -106.144 -7.43587 31.9731 -2.1979e-007 1.77028e-006 -6.52828e-008 52.9624 86.6193 -43.4788 2.15147e-006 -2.49587e-006 3.00067 -8.0301 -4.95138 -0.697632 -179.384 10.0891 -1.66279 -180 1.52518e-005 178.269 -174.853 43.397 175.869 -2.92185e-006 -3.05858e-006 1.74212 -30.4603 77.1498 32.4667 8.54005 36.0437 -1.94278 -177.949 4.91839 -2.60534 4.54188e-006 -4.6773e-006 -1.3495 -5.78652 -37.7974 -1.30086 2.4583e-006 1.70791e-006 -1.24644 36.0935 78.4771 -37.0937 -8.922 35.7377 3.88494 
51.8323 89.0568 26.499 1.03683 -7.56547 -7.65539 0.158918 0.359622 -0.0775999 0.320067 4.72175 -0.176641 0.322748 6.36681 -0.182252 -9.57729 -1.99742 0.299065 6.2659 8.58098 -0.884444 64.7624 -4.64054 -3.26985 116.894 9.89566 -25.7632 4.88721e-007 -2.04203e-006 -4.97007e-006 9.83319 67.1525 -7.9547 -2.66651e-006 3.28422e-006 -3 8.03006 -4.95138 0.69765 -64.5181 -9.24209 5.81788 -106.229 -7.03791 32.1184 -2.1979e-007 1.77028e-006 -6.52828e-008 55.1709 86.6446 -45.6098 2.15147e-006 -2.49587e-006 3.00067 -8.0301 -4.95138 -0.697632 -179.399 10.2997 -1.61974 -180 1.52518e-005 178.26 -174.771 44.0062 175.79 -2.92185e-006 -3.05859e-006 1.80797 -32.054 77.7961 34.1444 8.53924 35.804 -1.98243 -177.999 5.10538 -2.68413 4.54188e-006 -4.6773e-006 -1.35097 -5.93803 -38.4076 -1.40759 2.4583e-006 1.70791e-006 -1.2881 38.6635 79.139 -39.6151 -8.89554 35.4093 3.8713 
51.6844 88.8624 26.5761 1.08592 -7.59837 -7.68302 0.151015 0.367797 -0.0668151 0.30406 4.73813 -0.153981 0.306442 6.3832 -0.159295 -9.51344 -1.94 0.266894 6.1784 8.51173 -0.911708 64.685 -4.61549 -3.25088 117.004 10.2952 -25.8105 4.88721e-007 -2.04203e-006 -4.97007e-006 9.84635 67.064 -7.95321 -2.66651e-006 3.28422e-006 -3 8.03006 -4.95138 0.69765 -64.4799 -9.20914 5.79871 -106.326 -6.62857 32.2604 -2.1979e-007 1.77028e-006 -6.52828e-008 57.229 86.6616 -47.5966 2.15147e-006 -2.49587e-006 3.00066 -8.0301 -4.95138 -0.697632 -179.412 10.5089 -1.57616 -180 1.52517e-005 178.252 -174.693 44.6081 175.715 -2.92185e-006 -3.0586e-006 1.87489 -33.9125 78.458 36.0906 8.53737 35.4804 -2.03503 -178.055 5.29308 -2.76076 4.54188e-006 -4.6773e-006 -1.35284 -6.09112 -39.0057 -1.51761 2.4583e-006 1.70791e-006 -1.32924 41.5862 79.782 -42.4844 -8.86201 34.9936 3.85324 
51.7606 88.5605 26.4731 1.13406 -7.62945 -7.70761 0.142758 0.375316 -0.055478 0.287327 4.75321 -0.130181 0.289395 6.39828 -0.135184 -9.43846 -1.87626 0.23117 6.08409 8.4403 -0.941586 64.6154 -4.58303 -3.22853 117.095 10.6947 -25.8492 4.88721e-007 -2.04203e-006 -4.97007e-006 9.83532 66.9922 -7.93762 -2.66651e-006 3.28422e-006 -3 8.03006 -4.95138 0.69765 -64.4289 -9.17198 5.77695 -106.431 -6.21053 32.3987 -2.1979e-007 1.77028e-006 -6.52828e-008 59.1701 86.6719 -49.4711 2.15147e-006 -2.49587e-006 3.00066 -8.0301 -4.95138 -0.697632 -179.423 10.7155 -1.53331 -180 1.52516e-005 178.244 -174.619 45.1997 175.641 -2.92185e-006 -3.05861e-006 1.9422 -36.0611 79.1215 38.3293 8.53415 35.0895 -2.09808 -178.113 5.48076 -2.83566 4.54188e-006 -4.6773e-006 -1.35505 -6.24434 -39.591 -1.6297 2.4583e-006 1.70791e-006 -1.36974 44.8818 80.3946 -45.7239 -8.82317 34.5093 3.83192 
51.8106 88.2671 26.3018 1.18039 -7.65914 -7.72985 0.134409 0.382355 -0.0438047 0.270401 4.76733 -0.105705 0.272146 6.4124 -0.110393 -9.35572 -1.80819 0.193124 5.98565 8.36771 -0.973121 64.552 -4.54431 -3.20325 117.171 11.0934 -25.8827 4.88721e-007 -2.04203e-006 -4.97007e-006 9.80331 66.9356 -7.90991 -2.66651e-006 3.28422e-006 -3 8.03006 -4.95138 0.69765 -64.368 -9.1317 5.75327 -106.542 -5.78639 32.5333 -2.1979e-007 1.77028e-006 -6.52828e-008 61.0322 86.6765 -51.2697 2.15147e-006 -2.49587e-006 3.00066 -8.0301 -4.95138 -0.697632 -179.431 10.9183 -1.49246 -180 1.52516e-005 178.236 -174.548 45.7782 175.569 -2.92185e-006 -3.05861e-006 2.0092 -38.5221 79.7729 40.8817 8.52933 34.6479 -2.1691 -178.172 5.66766 -2.90924 4.54188e-006 -4.6773e-006 -1.35754 -6.39618 -40.1626 -1.74261 2.4583e-006 1.70791e-006 -1.40947 48.5584 80.965 -49.343 -8.7807 33.9751 3.80849 
51.841 88.0142 26.286 1.22408 -7.68791 -7.75045 0.126233 0.389093 -0.0320107 0.253813 4.78084 -0.0810213 0.255233 6.42592 -0.085399 -9.26859 -1.73778 0.153987 5.88573 8.29497 -1.00536 64.493 -4.50045 -3.1755 117.235 11.4905 -25.9143 4.88721e-007 -2.04203e-006 -4.97007e-006 9.7535 66.8927 -7.87198 -2.66651e-006 3.28422e-006 -3 8.03006 -4.95138 0.69765 -64.3004 -9.0894 5.72836 -106.655 -5.35877 32.664 -2.1979e-007 1.77028e-006 -6.52828e-008 62.8561 86.6764 -53.032 2.15147e-006 -2.49587e-006 3.00066 -8.0301 -4.95138 -0.697632 -179.435 11.1159 -1.45486 -180 1.52515e-005 178.229 -174.478 46.3405 175.498 -2.92185e-006 -3.05862e-006 2.07521 -41.3095 80.3985 43.7608 8.5228 34.1725 -2.24568 -178.23 5.85306 -2.98192 4.54188e-006 -4.6773e-006 -1.36022 -6.54503 -40.7199 -1.85503 2.4583e-006 1.70791e-006 -1.44832 52.6028 81.4827 -53.3307 -8.73625 33.41 3.78398 
